<?xml version="1.0" ?><svg viewBox="0 0 64 64" xmlns="http://www.w3.org/2000/svg"><title/><g data-name="Layer 20" id="Layer_20"><path d="M53.79,47.52a6.34,6.34,0,1,0,6.34,6.34A6.34,6.34,0,0,0,53.79,47.52ZM56.6,55,51,55.12h0a1,1,0,0,1,0-2L56.56,53h0a1,1,0,0,1,0,2ZM39.75,33.21a2.89,2.89,0,1,1-2.89-2.89A2.89,2.89,0,0,1,39.75,33.21Zm-9.92,0a2.9,2.9,0,1,1-2.89-2.89A2.89,2.89,0,0,1,29.83,33.21ZM32,.1A31.9,31.9,0,1,0,46.18,60.55,10.13,10.13,0,0,1,60.49,46.26,31.89,31.89,0,0,0,32,.1ZM47.69,38.74s-2.1,3.87-8,4.19a.24.24,0,0,1-.21-.09L38.1,41.13a.23.23,0,0,1,.07-.35c.89-.47,3.93-2.14,5-3.76A23.58,23.58,0,0,1,32,40.59,23.57,23.57,0,0,1,20.72,37c1.11,1.62,4.15,3.29,5,3.76a.23.23,0,0,1,.07.35L24.5,42.84a.24.24,0,0,1-.21.09c-6-.32-8-4.19-8-4.19-.36-6.46,3-14.2,3.68-15.69a1,1,0,0,1,.36-.42,14.64,14.64,0,0,1,7.44-2.41l.06.23c-4.25,1.15-5.91,2.54-6.44,3.11-.05.06,0,.14.07.1C25.75,21.3,32,21.43,32,21.43s6.22-.13,10.55,2.23a.06.06,0,0,0,.08-.1c-.53-.57-2.19-2-6.44-3.11l.06-.23a14.64,14.64,0,0,1,7.44,2.41,1,1,0,0,1,.36.42C44.69,24.54,48.05,32.28,47.69,38.74Z"/></g></svg>